<?xml version="1.0" encoding="utf-8"?>
<!-- Generator: Adobe Illustrator 26.5.2, SVG Export Plug-In . SVG Version: 6.00 Build 0)  -->
<svg version="1.1" id="Layer_1" xmlns="http://www.w3.org/2000/svg" xmlns:xlink="http://www.w3.org/1999/xlink" x="0px" y="0px"
	 viewBox="0 0 198.3 131.2" style="enable-background:new 0 0 198.3 131.2;" xml:space="preserve">
<style type="text/css">
	.st0{fill:#FFFFFF;}
</style>
<g>
	<path class="st0" d="M170.6,122.1c-6.2,0-12.3,0-18.5,0c1-5.2,2-10.2,2.9-15.3c0.7-3.8,1.5-7.7,2.1-11.6c0.1-0.9-0.2-2.1-0.7-2.8
		c-3.1-4-2.9-8.3,0.5-12.2c0.5-0.6,1-1.5,1-2.2c0.1-8.8,0-17.5,0-26.3c0-0.1-0.1-0.2-0.2-0.5c-2.2,1-4.4,2.1-6.7,3.1
		c-16.6,7.8-33.2,15.6-49.9,23.2c-1.2,0.5-3.1,0.5-4.3,0c-19.8-9.2-39.6-18.5-59.4-27.8c-2.5-1.2-4.9-2.4-7.4-3.5
		c-1.4-0.6-2.5-1.5-2.5-3.2c0.1-1.6,1.2-2.4,2.5-3c12.5-5.7,25.1-11.4,37.6-17.1c9.7-4.4,19.4-8.9,29.1-13.4c1.5-0.7,3-0.8,4.5,0
		c22.1,10.2,44.3,20.4,66.5,30.6c1.4,0.6,2.3,1.5,2.3,3.1c0,1.7-0.9,2.9-2.4,3.2c-3,0.7-3.4,2.6-3.3,5.3c0.2,8.4,0,16.8,0.1,25.2
		c0,1.1,0.6,2.5,1.3,3.4c3.2,3.9,3.3,7.8,0.3,11.9c-0.6,0.8-0.8,2.2-0.6,3.2c1.5,8.3,3.2,16.6,4.7,24.9
		C170.5,120.9,170.5,121.4,170.6,122.1z M51.3,68.1c0,9.1,0.1,18.2,0,27.4c0,3,1,5.4,2.8,7.6c2.8,3.4,6.3,5.8,10.2,7.6
		c21.3,10,43,10.7,65,2.4c5.4-2.1,10.5-4.8,14.5-9.2c2.2-2.4,3.4-5.1,3.3-8.5c-0.1-9.1,0-18.1,0-27.2c0-0.7,0-1.4,0-2.3
		c-0.8,0.3-1.3,0.5-1.9,0.8c-14.3,6.7-28.6,13.4-42.9,20.1c-2,1-3.8,1-5.9,0.1c-9.8-4.6-19.6-9.1-29.4-13.7
		c-5.1-2.4-10.3-4.8-15.7-7.3C51.3,66.8,51.3,67.5,51.3,68.1z"/>
</g>
</svg>
