<?xml version="1.0" encoding="utf-8"?>
<!-- Generator: Adobe Illustrator 26.5.2, SVG Export Plug-In . SVG Version: 6.00 Build 0)  -->
<svg version="1.1" id="Layer_1" xmlns="http://www.w3.org/2000/svg" xmlns:xlink="http://www.w3.org/1999/xlink" x="0px" y="0px"
	 viewBox="0 0 198.3 131.2" style="enable-background:new 0 0 198.3 131.2;" xml:space="preserve">
<style type="text/css">
	.st0{fill:#FFFFFF;}
</style>
<path class="st0" d="M115,69.1H113c-0.4,0-0.8-0.3-0.8-0.8v-7.1c0-3.6-1.4-6.8-3.8-9.1c-2.3-2.3-5.5-3.8-9.1-3.8
	c-7.1,0-12.9,5.8-12.9,12.9v7.1c0,0.4-0.3,0.8-0.8,0.8h-2.1c-2.7,0-4.9,2.2-4.9,4.9v22.9c0,2.7,2.2,4.9,4.9,4.9H115
	c2.7,0,4.9-2.2,4.9-4.9V74C120,71.3,117.8,69.1,115,69.1z M89.5,61.4c0-5.7,4.8-10.2,10.5-9.9c5.3,0.3,9.2,4.9,9.2,10.2v6.7
	c0,0.3-0.3,0.6-0.6,0.6H90.1c-0.3,0-0.6-0.3-0.6-0.6V61.4z M117.1,96.3c0,1.5-1.2,2.8-2.8,2.8H84.4c-1.5,0-2.8-1.2-2.8-2.8V74.7
	c0-1.5,1.2-2.8,2.8-2.8h29.9c1.5,0,2.8,1.2,2.8,2.8V96.3z M40.9,24.5v82.2c0,5.3,4.3,9.6,9.6,9.6h97.3c5.3,0,9.6-4.3,9.6-9.6V24.5
	c0-5.3-4.3-9.6-9.6-9.6H50.5C45.2,14.9,40.9,19.2,40.9,24.5z M43.9,25c0-4,3.3-7.3,7.3-7.3h96c4,0,7.3,3.3,7.3,7.3v8.6
	c0,0.3-0.2,0.5-0.5,0.5H44.4c-0.3,0-0.5-0.2-0.5-0.5V25z M154.4,106.1c0,4-3.3,7.3-7.3,7.3h-96c-4,0-7.3-3.3-7.3-7.3V37.4
	c0-0.3,0.2-0.5,0.5-0.5h109.6c0.3,0,0.5,0.2,0.5,0.5V106.1z M61.7,25.9c0,0.8-0.6,1.5-1.5,1.5H52c-0.8,0-1.5-0.6-1.5-1.5
	c0-0.8,0.6-1.5,1.5-1.5h8.2C61,24.5,61.7,25.1,61.7,25.9z M78.4,25.9c0,0.8-0.6,1.5-1.5,1.5h-8.2c-0.8,0-1.5-0.7-1.5-1.5
	c0-0.8,0.6-1.5,1.5-1.5h8.2C77.7,24.4,78.4,25.1,78.4,25.9z M104.6,82.9c0,2-1.1,3.6-2.6,4.5c-0.5,0.3-0.7,0.7-0.7,1.3V92
	c0,1-0.8,1.8-1.8,1.8h-0.3c-1,0-1.8-0.8-1.8-1.8v-3.3c0-0.5-0.3-1-0.7-1.3c-1.9-1.1-3-3.3-2.5-5.7c0.4-1.9,2-3.5,3.9-4
	C101.6,77,104.6,79.6,104.6,82.9z"/>
</svg>
