<?xml version="1.0" encoding="utf-8"?>
<!-- Generator: Adobe Illustrator 26.5.2, SVG Export Plug-In . SVG Version: 6.00 Build 0)  -->
<svg version="1.1" id="Layer_1" xmlns="http://www.w3.org/2000/svg" xmlns:xlink="http://www.w3.org/1999/xlink" x="0px" y="0px"
	 viewBox="0 0 874.8 768" style="enable-background:new 0 0 874.8 768;" xml:space="preserve">
<style type="text/css">
	.st0{fill:#7C3AED;}
</style>
<g>
	<g>
		<path class="st0" d="M532.2,453.8c1.4,1.7,2.2,3.8,2.3,6.4v0.3H518c0.3-2.8,1.3-5.1,2.9-6.7c1.6-1.7,3.5-2.5,5.8-2.5
			C528.9,451.4,530.8,452.2,532.2,453.8z M432.1,451.4c-2.3,0-4.2,0.8-5.8,2.5c-1.6,1.7-2.5,3.9-2.9,6.7H440v-0.3
			c-0.1-2.6-0.8-4.8-2.3-6.4C436.3,452.2,434.4,451.4,432.1,451.4z M745.2,384c0,170-137.8,307.8-307.8,307.8S129.6,554,129.6,384
			c0-78.2,29.2-149.6,77.3-203.9c1.4,3.9,3.6,7.5,6.6,10.6c5.6,5.7,13.3,8.7,23,8.7c9.7,0,17.4-2.9,23.1-8.6
			c5.6-5.7,8.5-12.8,8.5-21.2c0-8.5-2.8-15.7-8.4-21.4c-3.1-3.2-6.9-5.5-11.2-7c52.2-40.6,117.8-64.9,189-64.9
			C607.4,76.2,745.2,214,745.2,384z M266.1,207.6h-57.6v205.8c-0.3,11.3-4.6,13.5-12,13.5c-4.6,0-8.8-0.4-12.3-1.3l-10.6-2.5v49.3
			l6.3,1.7c7.6,2.1,15.6,3.1,23.7,3.1c20,0,35.6-5.8,46.4-17.2c10.6-11.3,16-27.5,16-48V207.6z M416.3,449.3h-3.1l-5.6,21L407,473
			l-0.7-2.9l-6.5-20.8h-2.6l-6.6,21l-0.6,2.5l-0.5-2.4l-5.8-21.1h-3.1l8,27.4h2.6L398,455l0.3-1.5l0.3,1.5l7,21.7h2.6L416.3,449.3z
			 M443,461.5c0-3.9-1-7-2.9-9.3c-2-2.3-4.6-3.4-7.9-3.4c-2.1,0-4.1,0.6-5.9,1.8c-1.8,1.2-3.2,2.9-4.3,5c-1,2.1-1.5,4.5-1.5,7.1v1.1
			c0,2.6,0.5,4.9,1.6,6.9c1,2.1,2.5,3.7,4.4,4.8c1.9,1.1,4,1.7,6.3,1.7c4.2,0,7.5-1.6,9.7-4.8l-1.9-1.4c-1,1.3-2.1,2.2-3.4,2.8
			c-1.2,0.6-2.7,0.9-4.3,0.9c-2.7,0-4.9-1-6.7-3.1c-1.8-2.1-2.7-4.7-2.7-7.8v-0.6H443V461.5z M471,462.8c0-4.4-0.9-7.9-2.8-10.3
			c-1.9-2.5-4.4-3.7-7.7-3.7c-3.8,0-6.6,1.5-8.6,4.5v-15.5h-3v38.9h2.8l0.1-3.8c2,2.8,4.8,4.3,8.7,4.3c3.2,0,5.7-1.3,7.6-3.8
			c1.9-2.5,2.8-5.9,2.8-10.2V462.8z M509.7,469.6c0-1.4-0.3-2.6-1-3.6c-0.6-1-1.6-1.9-3-2.6c-1.3-0.7-3.3-1.4-6-2
			c-2.7-0.6-4.5-1.3-5.5-2.1c-1-0.8-1.5-1.8-1.5-3.2c0-1.4,0.6-2.6,1.8-3.5c1.2-0.9,2.8-1.3,4.8-1.3c2,0,3.7,0.5,5.1,1.6
			c1.3,1.1,2,2.4,2,4h3c0-2.4-0.9-4.4-2.8-5.9c-1.9-1.5-4.3-2.3-7.4-2.3c-2.8,0-5.1,0.7-6.9,2.1c-1.8,1.4-2.7,3.2-2.7,5.4
			c0,1.4,0.3,2.5,1,3.5c0.7,1,1.6,1.8,3,2.4c1.3,0.7,3.2,1.3,5.7,1.8c2.4,0.5,4.3,1.2,5.5,2.1c1.2,0.9,1.8,2.1,1.8,3.6
			c0,1.4-0.7,2.6-2,3.5c-1.3,0.9-3,1.4-5.1,1.4c-2.3,0-4.1-0.5-5.5-1.5c-1.4-1-2.1-2.4-2.2-4.1h-3c0,2.4,1,4.3,3,5.9
			c2,1.5,4.6,2.3,7.8,2.3c3,0,5.4-0.7,7.3-2.1C508.8,473.8,509.7,471.9,509.7,469.6z M537.5,461.5c0-3.9-1-7-2.9-9.3
			c-2-2.3-4.6-3.4-7.9-3.4c-2.1,0-4.1,0.6-5.9,1.8c-1.8,1.2-3.2,2.9-4.3,5c-1,2.1-1.5,4.5-1.5,7.1v1.1c0,2.6,0.5,4.9,1.6,6.9
			c1,2.1,2.5,3.7,4.4,4.8c1.9,1.1,4,1.7,6.3,1.7c4.2,0,7.5-1.6,9.7-4.8l-1.9-1.4c-1,1.3-2.1,2.2-3.4,2.8c-1.2,0.6-2.7,0.9-4.3,0.9
			c-2.7,0-4.9-1-6.7-3.1c-1.8-2.1-2.7-4.7-2.7-7.8v-0.6h19.6V461.5z M556.1,449.1c-0.5-0.2-1.2-0.3-2-0.3c-3.5,0-6.1,1.6-7.7,4.9
			l-0.1-4.4h-3v27.4h3v-18.8c0.6-2,1.5-3.5,2.8-4.6c1.3-1.1,2.9-1.6,4.8-1.6c0.7,0,1.4,0.1,2.1,0.2L556.1,449.1z M581.3,449.3h-3.1
			l-8.3,23.2l-8.4-23.2h-3.1l10.3,27.4h2.5L581.3,449.3z M589.7,449.3h-3v27.4h3V449.3z M590.3,441.4c0-0.6-0.2-1.1-0.6-1.4
			c-0.4-0.4-0.9-0.6-1.5-0.6c-0.6,0-1.1,0.2-1.5,0.6c-0.4,0.4-0.6,0.9-0.6,1.4c0,0.6,0.2,1,0.6,1.4c0.4,0.4,0.9,0.6,1.5,0.6
			c0.6,0,1.2-0.2,1.5-0.6C590.1,442.4,590.3,441.9,590.3,441.4z M599.4,463.5v-0.9c0-3.6,0.8-6.3,2.3-8.3c1.5-2,3.6-3,6.4-3
			c2.1,0,3.9,0.7,5.3,2c1.4,1.3,2.2,3.1,2.3,5.2h2.9c-0.1-2.9-1.2-5.3-3.1-7.1c-2-1.8-4.4-2.7-7.4-2.7c-2.4,0-4.4,0.6-6.2,1.7
			c-1.8,1.1-3.1,2.7-4.1,4.8c-0.9,2.1-1.4,4.5-1.4,7.2v0.9c0,4.2,1.1,7.6,3.2,10.1c2.1,2.5,5,3.8,8.6,3.8c1.8,0,3.5-0.4,5.1-1.2
			c1.6-0.8,2.9-1.9,3.8-3.2c1-1.4,1.5-2.9,1.6-4.6h-2.9c-0.1,1.9-0.9,3.4-2.3,4.6c-1.4,1.2-3.2,1.8-5.3,1.8c-2.8,0-4.9-1-6.4-2.9
			C600.1,469.8,599.4,467,599.4,463.5z M645.6,461.5c0-3.9-1-7-2.9-9.3c-2-2.3-4.6-3.4-7.9-3.4c-2.1,0-4.1,0.6-5.9,1.8
			c-1.8,1.2-3.2,2.9-4.3,5c-1,2.1-1.5,4.5-1.5,7.1v1.1c0,2.6,0.5,4.9,1.6,6.9c1,2.1,2.5,3.7,4.4,4.8c1.9,1.1,4,1.7,6.3,1.7
			c4.2,0,7.5-1.6,9.7-4.8l-1.9-1.4c-1,1.3-2.1,2.2-3.4,2.8c-1.2,0.6-2.7,0.9-4.3,0.9c-2.7,0-4.9-1-6.7-3.1c-1.8-2.1-2.7-4.7-2.7-7.8
			v-0.6h19.6V461.5z M645.6,353.4l-10.5,2.5c-4.1,1-8.2,1.4-12.2,1.4c-5.2,0-10-4.3-10-10.8v-91.8h31.7v-47.1h-31.7v-43.7h-57.6
			v43.7h-74.9l-22.9,99.3l-29.9-99.3h-43.2l-29.5,98.3l-23.3-98.3h-57.4l53.9,197h46.1l31.6-103l32.2,103h46.1L525,254.7h30.3V348
			c0,19.2,4.7,34.1,13.9,44.3c9.4,10.4,23.3,15.7,41.3,15.7c9.3,0,19-1.4,28.9-4.1l6.3-1.8V353.4z M459.9,451.4
			c-1.9,0-3.6,0.5-4.9,1.4c-1.4,1-2.4,2.4-3.1,4.2v12.4c1.5,3.4,4.2,5.2,8.1,5.2c2.5,0,4.5-1,5.9-3c1.4-2,2.1-4.9,2.1-8.9
			c0-3.6-0.7-6.4-2.1-8.4C464.4,452.4,462.4,451.4,459.9,451.4z M634.7,451.4c-2.3,0-4.2,0.8-5.8,2.5c-1.6,1.7-2.5,3.9-2.9,6.7h16.5
			v-0.3c-0.1-2.6-0.8-4.8-2.3-6.4C638.9,452.2,637,451.4,634.7,451.4z"/>
	</g>
</g>
</svg>
